<svg width="20" height="20" viewBox="0 0 20 20" fill="none" xmlns="http://www.w3.org/2000/svg">
<g id="si:Notifications">
<g id="v">
<path d="M9.75 1.01562C8.96472 1.01562 8.32813 1.65222 8.32813 2.4375C8.32813 2.49723 8.33181 2.55611 8.33896 2.6139C5.88041 3.2415 4.0625 5.47095 4.0625 8.125V13.8125H3.25C2.80127 13.8125 2.4375 14.1763 2.4375 14.625C2.4375 15.0737 2.80127 15.4375 3.25 15.4375H16.25C16.6987 15.4375 17.0625 15.0737 17.0625 14.625C17.0625 14.1763 16.6987 13.8125 16.25 13.8125H15.4375V8.125C15.4375 5.47095 13.6196 3.2415 11.161 2.6139C11.1682 2.55611 11.1719 2.49723 11.1719 2.4375C11.1719 1.65222 10.5353 1.01562 9.75 1.01562Z" fill="#A8A8A8"/>
<path d="M9.75 18.6875C8.40381 18.6875 7.3125 17.5962 7.3125 16.25H12.1875C12.1875 17.5962 11.0962 18.6875 9.75 18.6875Z" fill="#A8A8A8"/>
</g>
</g>
</svg>
