<svg width="18" height="13" viewBox="0 0 18 13" fill="none" xmlns="http://www.w3.org/2000/svg">
<path id="v" fill-rule="evenodd" clip-rule="evenodd" d="M16.92 0H1.08C0.486 0 0 0.43875 0 0.975V11.05C0 12.1225 0.972 13 2.16 13H15.84C17.028 13 18 12.1225 18 11.05V0.975C18 0.43875 17.514 0 16.92 0ZM3.28581 1.86938C2.90846 1.57731 2.34028 1.6167 2.01676 1.95737C1.69323 2.29804 1.73687 2.81097 2.11422 3.10305L8.2973 7.88873C8.5184 8.05982 8.78007 8.1209 9.00002 8.1209C9.21996 8.1209 9.48172 8.05976 9.70281 7.88867L15.8858 3.10305C16.2632 2.81097 16.3068 2.29804 15.9833 1.95737C15.6598 1.6167 15.0916 1.57731 14.7142 1.86938L9.00002 6.29216L3.28581 1.86938Z" fill="#A8A8A8"/>
</svg>
